<svg xmlns="http://www.w3.org/2000/svg" xmlns:xlink="http://www.w3.org/1999/xlink" width="940" zoomAndPan="magnify" viewBox="0 0 705 591.000005" height="788" preserveAspectRatio="xMidYMid meet" version="1.0"><defs><clipPath id="id1"><path d="M 59.59375 0 L 649.597656 0 L 649.597656 590 L 59.59375 590 Z M 59.59375 0 " clip-rule="nonzero"/></clipPath><clipPath id="id2"><path d="M 151 102 L 555 102 L 555 492.132812 L 151 492.132812 Z M 151 102 " clip-rule="nonzero"/></clipPath></defs><g clip-path="url(#id1)"><path fill="#b1cd39" d="M 649.597656 295 C 649.597656 299.828125 649.480469 304.652344 649.242188 309.476562 C 649.003906 314.296875 648.648438 319.109375 648.175781 323.914062 C 647.703125 328.71875 647.113281 333.511719 646.40625 338.285156 C 645.695312 343.0625 644.871094 347.816406 643.929688 352.550781 C 642.988281 357.289062 641.929688 361.996094 640.757812 366.679688 C 639.582031 371.363281 638.296875 376.015625 636.894531 380.636719 C 635.492188 385.253906 633.980469 389.839844 632.351562 394.382812 C 630.726562 398.929688 628.988281 403.433594 627.140625 407.894531 C 625.292969 412.351562 623.339844 416.765625 621.273438 421.128906 C 619.210938 425.496094 617.039062 429.804688 614.765625 434.0625 C 612.488281 438.320312 610.109375 442.519531 607.628906 446.660156 C 605.144531 450.800781 602.5625 454.878906 599.878906 458.894531 C 597.199219 462.910156 594.417969 466.855469 591.542969 470.734375 C 588.667969 474.609375 585.699219 478.414062 582.636719 482.148438 C 579.574219 485.878906 576.417969 489.535156 573.175781 493.109375 C 569.933594 496.6875 566.605469 500.183594 563.195312 503.597656 C 559.78125 507.011719 556.285156 510.339844 552.707031 513.582031 C 549.128906 516.824219 545.476562 519.976562 541.742188 523.039062 C 538.011719 526.101562 534.207031 529.070312 530.328125 531.949219 C 526.449219 534.824219 522.503906 537.601562 518.488281 540.285156 C 514.476562 542.96875 510.398438 545.550781 506.257812 548.03125 C 502.117188 550.511719 497.917969 552.890625 493.660156 555.167969 C 489.402344 557.445312 485.089844 559.613281 480.726562 561.679688 C 476.359375 563.742188 471.949219 565.699219 467.488281 567.546875 C 463.027344 569.394531 458.523438 571.128906 453.980469 572.757812 C 449.433594 574.382812 444.851562 575.898438 440.230469 577.300781 C 435.609375 578.699219 430.957031 579.988281 426.277344 581.160156 C 421.59375 582.332031 416.882812 583.390625 412.148438 584.332031 C 407.414062 585.273438 402.65625 586.101562 397.882812 586.808594 C 393.105469 587.515625 388.316406 588.109375 383.511719 588.582031 C 378.707031 589.054688 373.894531 589.410156 369.070312 589.644531 C 364.25 589.882812 359.425781 590 354.597656 590 C 349.769531 590 344.945312 589.882812 340.121094 589.644531 C 335.300781 589.410156 330.484375 589.054688 325.679688 588.582031 C 320.875 588.109375 316.085938 587.515625 311.3125 586.808594 C 306.535156 586.101562 301.78125 585.273438 297.042969 584.332031 C 292.308594 583.390625 287.601562 582.332031 282.917969 581.160156 C 278.234375 579.988281 273.582031 578.699219 268.960938 577.300781 C 264.34375 575.898438 259.757812 574.382812 255.214844 572.757812 C 250.667969 571.128906 246.164062 569.394531 241.703125 567.546875 C 237.242188 565.699219 232.832031 563.742188 228.46875 561.679688 C 224.101562 559.613281 219.792969 557.445312 215.535156 555.167969 C 211.277344 552.890625 207.078125 550.511719 202.9375 548.03125 C 198.792969 545.550781 194.71875 542.96875 190.703125 540.285156 C 186.6875 537.601562 182.742188 534.824219 178.863281 531.949219 C 174.988281 529.070312 171.183594 526.101562 167.449219 523.039062 C 163.71875 519.976562 160.0625 516.824219 156.484375 513.582031 C 152.910156 510.339844 149.414062 507.011719 146 503.597656 C 142.585938 500.183594 139.257812 496.6875 136.015625 493.109375 C 132.773438 489.535156 129.621094 485.878906 126.558594 482.148438 C 123.496094 478.414062 120.527344 474.609375 117.648438 470.734375 C 114.773438 466.855469 111.996094 462.910156 109.3125 458.894531 C 106.628906 454.878906 104.046875 450.800781 101.566406 446.660156 C 99.082031 442.519531 96.703125 438.320312 94.429688 434.0625 C 92.152344 429.804688 89.984375 425.496094 87.917969 421.128906 C 85.855469 416.765625 83.898438 412.351562 82.050781 407.894531 C 80.203125 403.433594 78.464844 398.929688 76.839844 394.382812 C 75.214844 389.835938 73.699219 385.253906 72.296875 380.636719 C 70.898438 376.015625 69.609375 371.363281 68.4375 366.679688 C 67.261719 361.996094 66.207031 357.289062 65.265625 352.550781 C 64.320312 347.816406 63.496094 343.0625 62.789062 338.285156 C 62.082031 333.511719 61.488281 328.71875 61.015625 323.914062 C 60.542969 319.109375 60.1875 314.296875 59.949219 309.476562 C 59.714844 304.652344 59.59375 299.828125 59.59375 295 C 59.59375 290.171875 59.714844 285.347656 59.949219 280.527344 C 60.1875 275.703125 60.542969 270.890625 61.015625 266.085938 C 61.488281 261.28125 62.082031 256.492188 62.789062 251.714844 C 63.496094 246.941406 64.320312 242.183594 65.265625 237.449219 C 66.207031 232.714844 67.261719 228.003906 68.4375 223.320312 C 69.609375 218.636719 70.898438 213.988281 72.296875 209.367188 C 73.699219 204.746094 75.214844 200.164062 76.839844 195.617188 C 78.464844 191.074219 80.203125 186.570312 82.050781 182.109375 C 83.898438 177.648438 85.855469 173.234375 87.917969 168.871094 C 89.984375 164.507812 92.152344 160.195312 94.429688 155.9375 C 96.703125 151.679688 99.082031 147.480469 101.566406 143.339844 C 104.046875 139.199219 106.628906 135.121094 109.3125 131.105469 C 111.996094 127.09375 114.773438 123.148438 117.648438 119.269531 C 120.527344 115.390625 123.496094 111.585938 126.558594 107.855469 C 129.621094 104.121094 132.773438 100.46875 136.015625 96.890625 C 139.257812 93.3125 142.585938 89.816406 146 86.402344 C 149.414062 82.988281 152.910156 79.660156 156.484375 76.417969 C 160.0625 73.175781 163.71875 70.023438 167.449219 66.960938 C 171.183594 63.898438 174.988281 60.929688 178.863281 58.054688 C 182.742188 55.179688 186.6875 52.398438 190.703125 49.714844 C 194.71875 47.035156 198.792969 44.453125 202.9375 41.96875 C 207.078125 39.488281 211.277344 37.109375 215.535156 34.832031 C 219.792969 32.558594 224.101562 30.386719 228.46875 28.324219 C 232.832031 26.257812 237.242188 24.304688 241.703125 22.457031 C 246.164062 20.609375 250.667969 18.871094 255.214844 17.246094 C 259.757812 15.617188 264.34375 14.105469 268.960938 12.703125 C 273.582031 11.300781 278.234375 10.015625 282.917969 8.839844 C 287.601562 7.667969 292.308594 6.609375 297.042969 5.667969 C 301.78125 4.726562 306.535156 3.902344 311.3125 3.191406 C 316.085938 2.484375 320.875 1.894531 325.679688 1.421875 C 330.484375 0.949219 335.300781 0.59375 340.121094 0.355469 C 344.945312 0.117188 349.769531 0 354.597656 0 C 359.425781 0 364.25 0.117188 369.070312 0.355469 C 373.894531 0.59375 378.707031 0.949219 383.511719 1.421875 C 388.316406 1.894531 393.105469 2.484375 397.882812 3.191406 C 402.65625 3.902344 407.414062 4.726562 412.148438 5.667969 C 416.882812 6.609375 421.59375 7.667969 426.277344 8.839844 C 430.957031 10.015625 435.609375 11.300781 440.230469 12.703125 C 444.851562 14.105469 449.433594 15.617188 453.980469 17.246094 C 458.523438 18.871094 463.027344 20.609375 467.488281 22.457031 C 471.949219 24.304688 476.359375 26.257812 480.726562 28.324219 C 485.089844 30.386719 489.402344 32.558594 493.660156 34.832031 C 497.917969 37.109375 502.117188 39.488281 506.257812 41.96875 C 510.398438 44.453125 514.476562 47.035156 518.488281 49.714844 C 522.503906 52.398438 526.449219 55.179688 530.328125 58.054688 C 534.207031 60.929688 538.011719 63.898438 541.742188 66.960938 C 545.476562 70.023438 549.128906 73.175781 552.707031 76.417969 C 556.285156 79.660156 559.78125 82.988281 563.195312 86.402344 C 566.605469 89.816406 569.933594 93.3125 573.175781 96.890625 C 576.417969 100.46875 579.574219 104.121094 582.636719 107.855469 C 585.699219 111.585938 588.667969 115.390625 591.542969 119.269531 C 594.417969 123.148438 597.199219 127.09375 599.878906 131.105469 C 602.5625 135.121094 605.144531 139.199219 607.628906 143.339844 C 610.109375 147.480469 612.488281 151.679688 614.765625 155.9375 C 617.039062 160.195312 619.210938 164.507812 621.273438 168.871094 C 623.339844 173.234375 625.292969 177.648438 627.140625 182.109375 C 628.988281 186.570312 630.726562 191.074219 632.351562 195.617188 C 633.980469 200.164062 635.492188 204.746094 636.894531 209.367188 C 638.296875 213.988281 639.582031 218.636719 640.757812 223.320312 C 641.929688 228.003906 642.988281 232.714844 643.929688 237.449219 C 644.871094 242.183594 645.695312 246.941406 646.40625 251.714844 C 647.113281 256.492188 647.703125 261.28125 648.175781 266.085938 C 648.648438 270.890625 649.003906 275.703125 649.242188 280.527344 C 649.480469 285.347656 649.597656 290.171875 649.597656 295 Z M 649.597656 295 " fill-opacity="1" fill-rule="nonzero"/></g><g clip-path="url(#id2)"><path fill="#ffffff" d="M 262.648438 492.097656 C 249.574219 491.0625 236.859375 482.871094 229.265625 468.144531 C 204.914062 420.941406 180.339844 373.785156 157.226562 325.929688 C 145.476562 301.621094 153.628906 278.613281 174.5 268.828125 C 194.175781 259.601562 215.5625 267.371094 228.34375 290.195312 C 240.902344 312.597656 252.785156 335.515625 263.320312 358.925781 C 271.453125 377.015625 277.472656 375.511719 288.792969 361.191406 C 349.402344 284.5625 410.703125 208.515625 471.78125 132.269531 C 474.996094 128.25 478.003906 124.054688 481.507812 120.328125 C 499.34375 101.40625 521.855469 97.589844 538.949219 110.40625 C 556.761719 123.785156 559.527344 148.835938 543.777344 170.113281 C 525.941406 194.195312 506.78125 217.316406 488.070312 240.75 C 428.203125 315.785156 368.316406 390.777344 308.359375 465.765625 C 297.441406 479.390625 285.558594 491.691406 262.648438 492.097656 Z M 262.648438 492.097656 " fill-opacity="1" fill-rule="nonzero"/></g></svg>